<svg width="93" height="32" fill="none" xmlns="http://www.w3.org/2000/svg"><path fill-rule="evenodd" clip-rule="evenodd" d="M56.795 15.562c.038-4.129-2.17-7.69-6.547-7.69-4.342 0-6.553 3.561-6.553 7.69 0 4.132 2.21 7.69 6.553 7.69 4.378 0 6.585-3.558 6.547-7.69zm-21.505 0C35.29 7.34 40.83.188 50.248.188c9.413 0 14.956 7.149 14.956 15.374 0 8.225-5.54 15.375-14.959 15.375-9.415 0-14.955-7.15-14.955-15.375zM69.882 20.723h5.839c.617 0 1.214.409 1.316 1.032.33 1.906 1.603 3.05 3.566 3.05 1.845 0 2.874-.883 2.874-2.44 0-1.344-.78-2.06-2.707-2.818l-5.702-2.143c-4.098-1.556-6.15-4.374-6.15-8.328C68.918 3.611 73.18 0 80.158 0c6.26 0 10.572 2.886 11.383 7.708.033.212.023.43-.03.638a1.51 1.51 0 01-.277.564 1.36 1.36 0 01-.47.381c-.182.088-.378.132-.576.127h-5.825c-.62 0-1.187-.43-1.31-1.052-.315-1.535-1.354-2.398-2.982-2.398-1.595 0-2.578.842-2.578 2.231 0 1.178.774 1.93 3.156 2.86l5.247 2.061c4.308 1.722 6.107 4.538 6.107 8.489 0 5.97-4.466 9.67-11.52 9.67-6.921 0-11.328-3.363-11.973-9.065-.091-.798.586-1.488 1.37-1.488M0 29.582V3.05c0-1.041 1.047-1.693 1.883-1.17l13.604 8.413c.192.117.408.179.627.179.22 0 .436-.062.627-.18L30.346 1.88c.19-.12.405-.183.625-.184.22 0 .435.061.625.18.19.118.35.289.46.495.111.206.17.44.173.679v26.532c0 .18-.034.357-.098.522a1.372 1.372 0 01-.274.44 1.245 1.245 0 01-.408.293 1.16 1.16 0 01-.48.1h-4.995a1.159 1.159 0 01-.48-.1 1.247 1.247 0 01-.41-.292 1.372 1.372 0 01-.274-.44 1.464 1.464 0 01-.098-.523V17.021a1.46 1.46 0 00-.174-.679 1.315 1.315 0 00-.46-.495 1.178 1.178 0 00-.626-.18c-.22.002-.435.065-.625.184l-6.086 3.77c-.19.119-.407.182-.628.182-.22 0-.437-.063-.628-.183l-6.086-3.769a1.18 1.18 0 00-.625-.185c-.22 0-.436.06-.627.18-.191.117-.35.288-.462.495-.112.206-.171.44-.174.68v12.561c0 .179-.033.356-.097.52a1.371 1.371 0 01-.272.44 1.245 1.245 0 01-.406.293 1.16 1.16 0 01-.479.101H1.262a1.16 1.16 0 01-.48-.1 1.248 1.248 0 01-.409-.292 1.375 1.375 0 01-.274-.44A1.468 1.468 0 010 29.582" fill="#000"/></svg>
